<?xml version="1.0" encoding="UTF-8"?>
<!DOCTYPE svg PUBLIC "-//W3C//DTD SVG 1.1//EN" "http://www.w3.org/Graphics/SVG/1.1/DTD/svg11.dtd">
<svg xmlns="http://www.w3.org/2000/svg" xml:space="preserve" width="194px" height="31px" version="1.1" style="shape-rendering:geometricPrecision; text-rendering:geometricPrecision; image-rendering:optimizeQuality; fill-rule:evenodd; clip-rule:evenodd"
viewBox="0 0 193.304 30.517"
 xmlns:xlink="http://www.w3.org/1999/xlink">
 <defs>
  <style type="text/css">
   <![CDATA[
    .fil15 {fill:none}
    .fil14 {fill:#0000A0;fill-rule:nonzero}
    .fil13 {fill:#00B9FF;fill-rule:nonzero}
    .fil10 {fill:#00B9FF;fill-rule:nonzero}
    .fil3 {fill:#00CCFF;fill-rule:nonzero}
    .fil9 {fill:#1BB9FF;fill-rule:nonzero}
    .fil5 {fill:#1BB9FF;fill-rule:nonzero}
    .fil2 {fill:#4F86FF;fill-rule:nonzero}
    .fil11 {fill:#4FECFF;fill-rule:nonzero}
    .fil6 {fill:#4FECFF;fill-rule:nonzero}
    .fil7 {fill:#6699FF;fill-rule:nonzero}
    .fil12 {fill:#82B9FF;fill-rule:nonzero}
    .fil8 {fill:#82ECFF;fill-rule:nonzero}
    .fil4 {fill:#82ECFF;fill-rule:nonzero}
    .fil1 {fill:red;fill-rule:nonzero}
    .fil0 {fill:url(#id0);fill-rule:nonzero}
   ]]>
  </style>
  <linearGradient id="id0" gradientUnits="userSpaceOnUse" x1="75.785" y1="26.268" x2="117.519" y2="26.268">
   <stop offset="0" style="stop-opacity:1; stop-color:#FFCC00"/>
   <stop offset="1" style="stop-opacity:1; stop-color:yellow"/>
  </linearGradient>
 </defs>
 <g id="Capa_x0020_1">
  <metadata id="back-Layer"/>
  <g id="_2116847347392">
   <path class="fil0" d="M76.848 29.88c-0.727,-1.211 -1.063,-2.163 -1.063,-3.612 0.001,-1.437 0.343,-2.455 1.094,-3.67l0.361 -0.579 4.487 0c0.794,0 1.591,0.215 2.191,0.756 0.28,0.28 0.479,0.498 0.654,0.861 0.448,-0.217 0.94,-0.32 1.437,-0.32 0.93,0 1.655,0.345 2.294,1.007 0.469,-0.519 1.074,-0.791 1.761,-0.861l0 -1.443 3.845 0 0 1.352c0.452,0.099 0.859,0.329 1.175,0.669 1.204,-1.004 3.138,-0.974 4.271,0.132 0.792,-0.844 2.01,-1.112 3.064,-0.598 0.64,-0.315 1.366,-0.337 2.032,-0.091l0 -1.464 3.845 0 0 1.362c0.55,0.116 1.048,0.376 1.462,0.756 0.608,-0.549 1.361,-0.821 2.178,-0.821 0.433,0 0.834,0.077 1.204,0.233l-0.73 -1.53 3.657 0c0.572,0.92 1.083,1.705 1.309,2.795 0.162,0.783 0.182,1.636 0.079,2.43 -0.178,1.364 -0.718,2.191 -1.395,3.273l-3.65 0 0.499 -1.047c-1.096,0.365 -2.292,0.118 -3.148,-0.666 -0.999,0.909 -2.387,1.064 -3.591,0.484l0 0.267 -8.536 0.03c-0.625,0.103 -1.277,0.031 -1.857,-0.231l0 0.201 -5.713 0 0 -0.294c-0.51,0.294 -1.132,0.394 -1.714,0.394l-1.418 0 0 -0.169c-0.536,0.169 -1.127,0.191 -1.676,0.069l-4.818 0 0.461 0.962 -3.661 0c-0.132,-0.216 -0.264,-0.427 -0.39,-0.637z"/>
   <path class="fil1" d="M78.96 29.292l-1.043 0c-0.338,-0.549 -0.574,-1.044 -0.708,-1.486 -0.133,-0.442 -0.199,-0.955 -0.199,-1.538 0,-0.576 0.067,-1.089 0.203,-1.542 0.136,-0.451 0.37,-0.946 0.704,-1.482l1.039 0c-0.5,1.045 -0.749,2.048 -0.749,3.009 0,0.978 0.25,1.992 0.753,3.039zm2.341 -4.683l0 3.722 -1.51 0 0 -5.087 1.936 0c0.59,0 1.047,0.146 1.373,0.44 0.362,0.329 0.542,0.745 0.542,1.249 0,0.515 -0.223,0.95 -0.671,1.303l0.871 2.095 -1.587 0 -0.733 -1.637 0 -1.307 0.12 0c0.316,0 0.475,-0.137 0.475,-0.413 0,-0.243 -0.183,-0.365 -0.55,-0.365l-0.266 0zm4.708 -0.068c0.528,0 0.979,0.189 1.356,0.568 0.377,0.378 0.565,0.832 0.565,1.361 0,0.537 -0.191,0.994 -0.572,1.372 -0.383,0.377 -0.843,0.565 -1.382,0.565 -0.54,0 -1.001,-0.189 -1.384,-0.568 -0.382,-0.379 -0.574,-0.835 -0.574,-1.369 0,-0.544 0.192,-1.001 0.574,-1.373 0.383,-0.371 0.856,-0.556 1.417,-0.556zm-0.037 1.372c-0.15,0 -0.275,0.055 -0.38,0.163 -0.104,0.108 -0.156,0.24 -0.156,0.398 0,0.154 0.052,0.286 0.158,0.397 0.105,0.109 0.231,0.164 0.378,0.164 0.149,0 0.276,-0.055 0.382,-0.164 0.105,-0.111 0.158,-0.243 0.158,-0.397 0,-0.158 -0.053,-0.29 -0.157,-0.398 -0.104,-0.108 -0.231,-0.163 -0.383,-0.163zm4.861 -1.243l0 1.468c-0.195,0 -0.33,0.037 -0.403,0.11 -0.073,0.074 -0.119,0.218 -0.139,0.433 -0.065,0.717 -0.342,1.223 -0.833,1.518 -0.26,0.154 -0.63,0.231 -1.108,0.231l-0.193 0 0 -1.472 0.063 0c0.222,0 0.381,-0.047 0.478,-0.139 0.095,-0.094 0.15,-0.257 0.165,-0.49 0.019,-0.38 0.055,-0.648 0.106,-0.802 0.05,-0.154 0.155,-0.307 0.31,-0.458 0.273,-0.266 0.651,-0.399 1.134,-0.399l0.42 0zm1.851 -1.426l0 1.556c0.236,-0.173 0.47,-0.259 0.706,-0.259 0.357,0 0.639,0.129 0.849,0.387 0.21,0.26 0.314,0.608 0.314,1.049l0 2.354 -1.396 0 0 -1.964c0,-0.157 -0.017,-0.264 -0.049,-0.319 -0.033,-0.055 -0.097,-0.081 -0.192,-0.081 -0.154,0 -0.232,0.114 -0.232,0.344l0 2.02 -1.395 0 0 -5.087 1.395 0zm4.749 3.694l0 1.441c-0.114,0.02 -0.218,0.028 -0.312,0.028 -0.558,0 -1.022,-0.184 -1.395,-0.551 -0.372,-0.368 -0.558,-0.828 -0.558,-1.382 0,-0.539 0.188,-0.995 0.565,-1.37 0.374,-0.375 0.832,-0.563 1.371,-0.563 0.6,0 1.073,0.175 1.42,0.527 0.346,0.352 0.519,0.833 0.519,1.441l0 1.822 -1.396 0 0 -1.721c0,-0.196 -0.047,-0.352 -0.142,-0.469 -0.094,-0.116 -0.223,-0.174 -0.383,-0.174 -0.145,0 -0.271,0.053 -0.377,0.16 -0.105,0.107 -0.158,0.233 -0.158,0.379 0,0.153 0.048,0.28 0.143,0.38 0.097,0.099 0.219,0.149 0.367,0.149 0.12,0 0.233,-0.032 0.336,-0.097zm7.512 1.393l-1.396 0 0 -2.005c0,-0.155 -0.016,-0.263 -0.047,-0.322 -0.032,-0.06 -0.089,-0.091 -0.173,-0.091 -0.154,0 -0.23,0.139 -0.23,0.417l0 2.001 -1.396 0 0 -2.005c0,-0.155 -0.016,-0.263 -0.051,-0.322 -0.033,-0.06 -0.091,-0.091 -0.175,-0.091 -0.154,0 -0.231,0.139 -0.231,0.417l0 2.001 -1.396 0 0 -2.288c0,-0.417 0.141,-0.772 0.422,-1.064 0.281,-0.293 0.621,-0.438 1.022,-0.438 0.412,0 0.783,0.174 1.111,0.523 0.364,-0.349 0.728,-0.523 1.093,-0.523 0.464,0 0.835,0.168 1.116,0.507 0.22,0.263 0.331,0.647 0.331,1.152l0 2.131zm2.126 -5.087l0 3.045c0,0.497 0.178,0.746 0.533,0.746 0.151,0 0.28,-0.053 0.385,-0.156 0.106,-0.103 0.158,-0.228 0.158,-0.375 0,-0.152 -0.05,-0.279 -0.149,-0.382 -0.099,-0.103 -0.22,-0.155 -0.364,-0.155 -0.102,0 -0.218,0.044 -0.349,0.132l0 -1.534c0.164,-0.017 0.288,-0.024 0.372,-0.024 0.524,0 0.974,0.189 1.348,0.566 0.373,0.378 0.56,0.833 0.56,1.364 0,0.546 -0.19,1.004 -0.571,1.377 -0.38,0.373 -0.847,0.559 -1.402,0.559 -0.278,0 -0.55,-0.06 -0.814,-0.183 -0.265,-0.122 -0.484,-0.286 -0.655,-0.492 -0.299,-0.358 -0.448,-0.821 -0.448,-1.39l0 -3.098 1.396 0zm4.865 1.297c0.527,0 0.979,0.189 1.355,0.568 0.377,0.378 0.566,0.832 0.566,1.361 0,0.537 -0.191,0.994 -0.572,1.372 -0.383,0.377 -0.843,0.565 -1.382,0.565 -0.54,0 -1.002,-0.189 -1.384,-0.568 -0.383,-0.379 -0.575,-0.835 -0.575,-1.369 0,-0.544 0.192,-1.001 0.575,-1.373 0.382,-0.371 0.855,-0.556 1.417,-0.556zm-0.037 1.372c-0.15,0 -0.276,0.055 -0.38,0.163 -0.104,0.108 -0.156,0.24 -0.156,0.398 0,0.154 0.052,0.286 0.157,0.397 0.106,0.109 0.232,0.164 0.379,0.164 0.149,0 0.276,-0.055 0.381,-0.164 0.106,-0.111 0.158,-0.243 0.158,-0.397 0,-0.158 -0.052,-0.29 -0.156,-0.398 -0.105,-0.108 -0.232,-0.163 -0.383,-0.163zm2.451 -2.669l1.038 0c0.34,0.547 0.576,1.041 0.709,1.485 0.132,0.442 0.198,0.956 0.198,1.539 0,0.576 -0.068,1.091 -0.202,1.543 -0.135,0.454 -0.37,0.947 -0.705,1.481l-1.038 0c0.498,-1.045 0.747,-2.048 0.747,-3.009 0,-0.981 -0.249,-1.994 -0.747,-3.039z"/>
  </g>
  <g id="_2116847351168">
   <path class="fil2" d="M179.03 3.332c0.277,0 0.535,0.027 0.775,0.082 0.246,0.057 0.468,0.144 0.667,0.262 0.487,-0.223 1.008,-0.335 1.56,-0.335 0.485,0 0.942,0.084 1.371,0.253 0.454,0.18 0.856,0.447 1.204,0.801l0.014 0.015c0.166,0.171 0.318,0.369 0.456,0.592 0.13,0.21 0.238,0.426 0.324,0.646l-0.004 0.001c0.09,0.227 0.158,0.453 0.205,0.677 0.054,0.263 0.082,0.507 0.082,0.731 0,0.255 -0.033,0.525 -0.098,0.808l0 0.007c-0.052,0.232 -0.135,0.475 -0.245,0.729l-0.008 0.023c-0.114,0.255 -0.243,0.486 -0.387,0.69 -0.157,0.224 -0.336,0.428 -0.535,0.609 -0.348,0.324 -0.741,0.571 -1.178,0.741 -0.252,0.098 -0.51,0.168 -0.773,0.21 0.376,0.46 0.563,0.995 0.563,1.606 0,0.356 -0.068,0.698 -0.2,1.025 -0.128,0.315 -0.317,0.604 -0.564,0.864 -0.224,0.236 -0.48,0.429 -0.767,0.58 -0.264,0.138 -0.546,0.239 -0.845,0.303l-0.008 0c-0.357,0.074 -0.769,0.128 -1.233,0.161 -0.456,0.033 -0.951,0.05 -1.482,0.05 -0.543,0 -1.042,-0.027 -1.496,-0.08 -0.485,-0.056 -0.925,-0.15 -1.318,-0.281l-0.022 0c-0.551,-0.189 -0.997,-0.485 -1.335,-0.885 -0.413,-0.489 -0.62,-1.057 -0.62,-1.704 0,-0.507 0.142,-0.984 0.426,-1.427l0.004 0.002c0.16,-0.251 0.359,-0.477 0.596,-0.679 0.012,-0.133 0.022,-0.285 0.03,-0.455 0.012,-0.267 0.02,-0.638 0.023,-1.112 -0.138,-0.107 -0.264,-0.226 -0.378,-0.356 -0.412,-0.472 -0.619,-1.014 -0.619,-1.626 0,-0.474 0.122,-0.917 0.367,-1.33 0.205,-0.347 0.486,-0.646 0.841,-0.897l0.008 0c0.446,-0.311 1.077,-0.589 1.896,-0.833 0.495,-0.148 0.955,-0.26 1.38,-0.336 0.438,-0.079 0.875,-0.12 1.309,-0.125l0.014 -0.007z"/>
   <path class="fil3" d="M187.362 3.281c0.19,0 0.454,0.023 0.792,0.068l0.007 0c0.235,0.031 0.485,0.072 0.749,0.121 0.14,-0.054 0.278,-0.096 0.413,-0.127 0.202,-0.046 0.392,-0.07 0.569,-0.07 0.487,0 0.951,0.142 1.394,0.425 0.3,0.192 0.58,0.45 0.84,0.775l0.004 -0.003c0.164,0.204 0.309,0.409 0.433,0.614 0.123,0.204 0.238,0.429 0.343,0.675l0.003 -0.001c0.102,0.237 0.183,0.479 0.244,0.725 0.072,0.295 0.109,0.569 0.109,0.822 0,0.356 -0.068,0.699 -0.205,1.027 -0.09,0.213 -0.205,0.41 -0.346,0.591 0.111,0.181 0.207,0.371 0.288,0.57 0.203,0.497 0.305,1.012 0.305,1.548 0,0.689 -0.158,1.333 -0.474,1.933 -0.298,0.566 -0.725,1.061 -1.282,1.485 -0.47,0.358 -0.986,0.627 -1.549,0.804 -0.541,0.17 -1.115,0.256 -1.721,0.256 -0.113,0 -0.321,-0.014 -0.623,-0.042 -0.355,-0.033 -0.609,-0.059 -0.779,-0.08l0 -0.003 -0.649 -0.071 -0.041 0.009 -0.272 0.023c-0.164,0.015 -0.27,0.023 -0.305,0.023 -0.314,0 -0.621,-0.048 -0.923,-0.145 -0.352,-0.113 -0.663,-0.29 -0.937,-0.533l-0.015 -0.007c-0.229,-0.207 -0.444,-0.463 -0.643,-0.769 -0.16,-0.247 -0.309,-0.526 -0.446,-0.837l-0.003 0.001c-0.128,-0.292 -0.233,-0.595 -0.314,-0.907 -0.092,-0.361 -0.138,-0.688 -0.138,-0.982 0,-0.68 0.184,-1.257 0.554,-1.731l0.049 -0.06 -0.007 -0.019c-0.178,-0.48 -0.266,-0.982 -0.266,-1.505 0,-0.538 0.087,-1.053 0.261,-1.543 0.179,-0.5 0.444,-0.958 0.793,-1.372 0.472,-0.558 1.043,-0.982 1.711,-1.271 0.642,-0.277 1.334,-0.417 2.077,-0.417zm-1.095 12.034c0.023,-0.003 0.039,-0.004 0.013,-0.002 -0.004,0 -0.003,0 0,-0.001l-0.013 0.003zm0.013 -0.003c0.007,-0.001 0.023,-0.005 0.009,-0.002l-0.009 0.002z"/>
   <path class="fil4" d="M169.728 3.273c0.639,0 1.255,0.093 1.847,0.278 0.598,0.186 1.155,0.467 1.672,0.841l0.001 -0.002c0.371,0.268 0.712,0.585 1.022,0.95 0.305,0.36 0.567,0.748 0.783,1.164l0 0.008c0.232,0.451 0.408,0.915 0.526,1.391 0.123,0.496 0.185,0.988 0.185,1.476 0,0.911 -0.203,1.762 -0.607,2.553 -0.382,0.747 -0.936,1.412 -1.658,1.997 -0.648,0.521 -1.356,0.917 -2.122,1.187 -0.763,0.268 -1.554,0.403 -2.371,0.403 -0.815,0 -1.575,-0.131 -2.279,-0.392 -0.741,-0.275 -1.395,-0.686 -1.96,-1.233l0.003 -0.004c-0.574,-0.555 -1.004,-1.195 -1.29,-1.918 -0.281,-0.71 -0.422,-1.481 -0.422,-2.311 0,-0.913 0.171,-1.764 0.512,-2.556 0.34,-0.786 0.838,-1.476 1.495,-2.068 0.651,-0.59 1.372,-1.032 2.163,-1.327 0.781,-0.291 1.614,-0.437 2.5,-0.437z"/>
   <path class="fil5" d="M160.221 3.281c0.19,0 0.454,0.023 0.792,0.068l0.007 0c0.235,0.031 0.485,0.072 0.749,0.121 0.14,-0.054 0.278,-0.096 0.413,-0.127 0.202,-0.046 0.392,-0.07 0.569,-0.07 0.487,0 0.951,0.142 1.394,0.425 0.3,0.192 0.58,0.45 0.84,0.775l0.004 -0.003c0.164,0.204 0.309,0.409 0.433,0.614 0.123,0.204 0.238,0.429 0.343,0.675l0.003 -0.001c0.102,0.237 0.183,0.479 0.244,0.725 0.073,0.295 0.109,0.569 0.109,0.822 0,0.356 -0.068,0.699 -0.205,1.027 -0.09,0.213 -0.205,0.41 -0.345,0.591 0.11,0.181 0.206,0.371 0.287,0.57 0.204,0.497 0.305,1.012 0.305,1.548 0,0.689 -0.158,1.333 -0.474,1.933 -0.298,0.566 -0.725,1.061 -1.282,1.485 -0.47,0.358 -0.985,0.627 -1.548,0.804 -0.542,0.17 -1.116,0.256 -1.722,0.256 -0.113,0 -0.321,-0.014 -0.623,-0.042 -0.355,-0.033 -0.609,-0.059 -0.779,-0.08l0 -0.003 -0.648 -0.071 -0.042 0.009 -0.272 0.023c-0.164,0.015 -0.27,0.023 -0.304,0.023 -0.315,0 -0.622,-0.048 -0.924,-0.145 -0.351,-0.113 -0.663,-0.29 -0.937,-0.533l-0.015 -0.007c-0.229,-0.207 -0.444,-0.463 -0.643,-0.769 -0.16,-0.247 -0.309,-0.526 -0.446,-0.837l-0.002 0.001c-0.129,-0.292 -0.234,-0.595 -0.315,-0.907 -0.092,-0.361 -0.138,-0.688 -0.138,-0.982 0,-0.68 0.184,-1.257 0.554,-1.731l0.049 -0.06 -0.007 -0.019c-0.178,-0.48 -0.266,-0.982 -0.266,-1.505 0,-0.538 0.087,-1.053 0.262,-1.543 0.178,-0.5 0.443,-0.958 0.792,-1.372 0.472,-0.558 1.043,-0.982 1.711,-1.271 0.642,-0.277 1.334,-0.417 2.077,-0.417zm-1.095 12.034c0.023,-0.003 0.039,-0.004 0.013,-0.002 -0.004,0 -0.003,0 0,-0.001l-0.013 0.003zm0.013 -0.003c0.007,-0.001 0.023,-0.005 0.009,-0.002l-0.009 0.002z"/>
   <path class="fil6" d="M152.154 3.281c0.191,0 0.455,0.023 0.792,0.068l0.008 0c0.235,0.031 0.485,0.072 0.748,0.121 0.141,-0.054 0.279,-0.096 0.414,-0.127 0.202,-0.046 0.392,-0.07 0.569,-0.07 0.487,0 0.951,0.142 1.394,0.425 0.3,0.192 0.58,0.45 0.84,0.775l0.003 -0.003c0.165,0.204 0.31,0.409 0.433,0.614 0.124,0.204 0.239,0.429 0.344,0.675l0.003 -0.001c0.102,0.237 0.183,0.479 0.244,0.725 0.072,0.295 0.108,0.569 0.108,0.822 0,0.356 -0.067,0.699 -0.205,1.027 -0.089,0.213 -0.204,0.41 -0.345,0.591 0.111,0.181 0.207,0.371 0.288,0.57 0.203,0.497 0.305,1.012 0.305,1.548 0,0.689 -0.158,1.333 -0.474,1.933 -0.298,0.566 -0.725,1.061 -1.282,1.485 -0.47,0.358 -0.986,0.627 -1.548,0.804 -0.542,0.17 -1.116,0.256 -1.721,0.256 -0.114,0 -0.322,-0.014 -0.624,-0.042 -0.355,-0.033 -0.61,-0.059 -0.78,-0.08l0.001 -0.003 -0.649 -0.071 -0.042 0.009 -0.272 0.023c-0.163,0.015 -0.269,0.023 -0.303,0.023 -0.315,0 -0.623,-0.048 -0.924,-0.145 -0.352,-0.113 -0.664,-0.29 -0.937,-0.533l-0.015 -0.007c-0.229,-0.207 -0.444,-0.463 -0.643,-0.769 -0.161,-0.247 -0.309,-0.526 -0.446,-0.837l-0.003 0.001c-0.129,-0.292 -0.234,-0.595 -0.314,-0.907 -0.093,-0.361 -0.139,-0.688 -0.139,-0.982 0,-0.68 0.185,-1.257 0.555,-1.731l0.049 -0.06 -0.007 -0.019c-0.178,-0.48 -0.267,-0.982 -0.267,-1.505 0,-0.538 0.088,-1.053 0.262,-1.543 0.179,-0.5 0.443,-0.958 0.793,-1.372 0.472,-0.558 1.043,-0.982 1.71,-1.271 0.642,-0.277 1.335,-0.417 2.077,-0.417zm-1.095 12.034c0.024,-0.003 0.04,-0.004 0.014,-0.002 -0.004,0 -0.003,0 0,-0.001l-0.014 0.003zm0.014 -0.003c0.006,-0.001 0.023,-0.005 0.009,-0.002l-0.009 0.002z"/>
   <path class="fil7" d="M145.773 0.232c0.379,0 0.736,0.04 1.072,0.118 0.402,0.095 0.763,0.244 1.08,0.445l0 0.007c0.406,0.26 0.718,0.577 0.937,0.952l-0.005 0.003c0.246,0.423 0.369,0.875 0.369,1.359 0,0.569 -0.151,1.093 -0.454,1.573 -0.271,0.429 -0.646,0.784 -1.123,1.063l0.002 0.004c-0.482,0.28 -1.025,0.494 -1.63,0.639 -0.57,0.137 -1.157,0.206 -1.76,0.206 -0.329,0 -0.654,-0.039 -0.978,-0.117 -0.386,-0.093 -0.725,-0.235 -1.016,-0.425l0.002 -0.004c-0.41,-0.263 -0.731,-0.592 -0.96,-0.986 -0.251,-0.435 -0.379,-0.908 -0.379,-1.417 0,-0.722 0.25,-1.357 0.75,-1.906 0.361,-0.396 0.85,-0.717 1.466,-0.962 0.457,-0.182 0.891,-0.317 1.302,-0.405 0.46,-0.098 0.902,-0.147 1.325,-0.147z"/>
   <path class="fil7" d="M149.3 5.742l0 4.798 0.115 0.101c0.164,0.149 0.306,0.312 0.423,0.488 0.15,0.224 0.259,0.46 0.324,0.706l0 0.007c0.06,0.222 0.089,0.444 0.089,0.663 0,1.21 -0.626,2.063 -1.879,2.558 -0.675,0.266 -1.58,0.4 -2.715,0.4 -0.507,0 -1.002,-0.025 -1.482,-0.073 -0.505,-0.051 -0.942,-0.127 -1.31,-0.225l-0.037 -0.015c-0.272,-0.079 -0.517,-0.186 -0.736,-0.322l0.002 -0.003c-0.246,-0.153 -0.46,-0.337 -0.644,-0.549 -0.201,-0.236 -0.357,-0.497 -0.465,-0.782 -0.113,-0.3 -0.17,-0.605 -0.17,-0.915 0,-0.221 0.03,-0.445 0.089,-0.671l0.002 0c0.078,-0.301 0.2,-0.563 0.361,-0.785l0.03 -0.029c0.12,-0.159 0.266,-0.312 0.436,-0.457l0.085 -0.07 0.004 -0.05c0.013,-0.156 0.02,-0.35 0.02,-0.582l-0.003 -0.32 -0.034 -0.725c-0.192,-0.144 -0.36,-0.309 -0.504,-0.495 -0.35,-0.455 -0.526,-0.967 -0.526,-1.535 0,-0.636 0.209,-1.197 0.626,-1.681 0.317,-0.371 0.736,-0.656 1.255,-0.856l0.007 -0.008c0.298,-0.114 0.66,-0.236 1.084,-0.365 0.42,-0.127 0.8,-0.232 1.143,-0.312l0.007 0c0.413,-0.096 0.774,-0.167 1.086,-0.214 0.371,-0.055 0.695,-0.083 0.972,-0.083 0.712,0 1.293,0.255 1.748,0.765l0.004 -0.003c0.396,0.446 0.593,0.992 0.593,1.639z"/>
   <path class="fil8" d="M138.493 3.281c0.58,0 1.139,0.087 1.674,0.258 0.541,0.174 1.052,0.44 1.532,0.796 0.525,0.393 0.93,0.852 1.215,1.379 0.322,0.596 0.483,1.243 0.483,1.938 0,0.483 -0.081,0.944 -0.246,1.383l0 0.007c-0.116,0.31 -0.269,0.591 -0.459,0.845 0.114,0.196 0.206,0.406 0.276,0.632l0 0.007c0.096,0.314 0.145,0.629 0.145,0.944 0,0.356 -0.061,0.714 -0.185,1.07 -0.096,0.276 -0.237,0.554 -0.421,0.832l0.002 0.002c-0.154,0.235 -0.334,0.456 -0.539,0.665 -0.193,0.194 -0.403,0.371 -0.632,0.532l-0.007 0.007c-0.451,0.314 -0.946,0.551 -1.484,0.71 -0.523,0.153 -1.064,0.231 -1.623,0.231 -0.679,0 -1.322,-0.118 -1.928,-0.351 -0.623,-0.241 -1.189,-0.6 -1.697,-1.075l0.002 -0.003c-0.64,-0.593 -1.126,-1.283 -1.459,-2.068 -0.339,-0.801 -0.508,-1.662 -0.508,-2.584 0,-0.895 0.158,-1.727 0.472,-2.498 0.311,-0.763 0.771,-1.439 1.376,-2.027 0.561,-0.544 1.182,-0.954 1.863,-1.227 0.672,-0.269 1.388,-0.405 2.148,-0.405z"/>
   <path class="fil9" d="M127.996 0c0.384,0 0.828,0.048 1.33,0.143 0.334,0.063 0.704,0.152 1.109,0.267 0.131,-0.043 0.259,-0.075 0.386,-0.096 0.17,-0.027 0.318,-0.04 0.447,-0.04 0.595,0 1.16,0.199 1.696,0.6l0.003 -0.005c0.345,0.258 0.683,0.62 1.01,1.087l0.003 -0.002c0.301,0.427 0.532,0.857 0.692,1.291 0.182,0.49 0.273,0.979 0.273,1.465 0,0.363 -0.06,0.715 -0.18,1.054 -0.123,0.346 -0.305,0.662 -0.549,0.946l0.052 0.072c0.583,0.834 0.875,1.778 0.875,2.828 0,1.79 -0.724,3.247 -2.171,4.37l-0.007 0c-0.675,0.524 -1.448,0.915 -2.317,1.172 -0.822,0.244 -1.716,0.367 -2.678,0.367 -0.402,0 -0.833,-0.026 -1.292,-0.078 -0.438,-0.049 -0.882,-0.122 -1.331,-0.218l-0.007 0c-0.447,-0.096 -0.858,-0.21 -1.234,-0.342 -0.425,-0.148 -0.789,-0.32 -1.09,-0.516l-0.015 -0.007c-0.357,-0.239 -0.672,-0.574 -0.938,-1.005 -0.198,-0.319 -0.37,-0.681 -0.514,-1.084 -0.133,-0.372 -0.237,-0.764 -0.313,-1.175 -0.077,-0.422 -0.117,-0.82 -0.117,-1.193 0,-0.284 0.039,-0.567 0.115,-0.848l-0.006 -0.001c0.092,-0.342 0.246,-0.649 0.458,-0.921l-0.001 -0.002c0.075,-0.097 0.155,-0.187 0.241,-0.27 -0.339,-0.695 -0.508,-1.425 -0.508,-2.19 0,-0.389 0.046,-0.774 0.136,-1.155 0.085,-0.354 0.219,-0.718 0.402,-1.091 0.179,-0.365 0.389,-0.697 0.631,-0.998 0.236,-0.294 0.506,-0.566 0.81,-0.814l-0.001 -0.002c0.643,-0.54 1.355,-0.944 2.139,-1.214 0.765,-0.263 1.585,-0.395 2.461,-0.395zm2.764 0.505l0.019 0.004 -0.019 -0.004z"/>
   <path class="fil5" d="M115.068 5.612c0.051,0 0.158,0.005 0.316,0.013l0.007 0c0.112,0.007 0.22,0.016 0.321,0.027 0.265,0.029 0.534,0.053 0.808,0.073 0.186,0.013 0.358,0.02 0.515,0.02 0.247,0 0.395,-0.005 0.443,-0.013l0.081 -0.008 0.287 -0.036c0.152,-0.017 0.265,-0.025 0.337,-0.025 0.758,0 1.343,0.312 1.759,0.929l-0.005 0.004c0.263,0.39 0.393,0.835 0.393,1.336 0,0.216 -0.022,0.46 -0.069,0.729 -0.033,0.193 -0.088,0.423 -0.165,0.691l0.003 0.001c-0.071,0.252 -0.148,0.486 -0.23,0.7 -0.089,0.235 -0.187,0.461 -0.292,0.675l-0.022 0.03c-0.114,0.222 -0.201,0.381 -0.263,0.478 -0.121,0.191 -0.255,0.36 -0.398,0.507 -0.217,0.224 -0.464,0.398 -0.739,0.52 -0.296,0.13 -0.608,0.198 -0.931,0.198 -0.085,0 -0.21,-0.009 -0.372,-0.026l-0.007 0c-0.111,-0.012 -0.223,-0.027 -0.335,-0.046 -0.182,-0.03 -0.388,-0.054 -0.619,-0.071 -0.215,-0.015 -0.47,-0.024 -0.766,-0.024 -0.244,0 -0.432,0.007 -0.558,0.019l-0.314 0.026c-0.148,0.01 -0.244,0.014 -0.285,0.014 -1.486,0 -2.229,-0.763 -2.229,-2.289 0,-0.351 0.094,-0.837 0.283,-1.445l0 -0.007c0.068,-0.221 0.146,-0.445 0.235,-0.674 0.094,-0.245 0.188,-0.454 0.281,-0.626l0.014 -0.03c0.108,-0.193 0.222,-0.368 0.338,-0.527 0.152,-0.208 0.321,-0.388 0.506,-0.542 0.243,-0.202 0.511,-0.354 0.804,-0.454 0.249,-0.084 0.521,-0.131 0.817,-0.14l0.051 -0.007z"/>
   <path class="fil10" d="M104.519 3.332c0.278,0 0.535,0.027 0.775,0.082 0.246,0.057 0.468,0.144 0.666,0.262 0.488,-0.223 1.008,-0.335 1.561,-0.335 0.485,0 0.941,0.084 1.371,0.253 0.454,0.18 0.855,0.447 1.204,0.801l0.014 0.015c0.167,0.171 0.318,0.369 0.456,0.592 0.129,0.21 0.238,0.426 0.324,0.646l-0.004 0.001c0.09,0.227 0.158,0.453 0.205,0.677 0.054,0.263 0.081,0.507 0.081,0.731 0,0.255 -0.033,0.525 -0.097,0.808l0 0.007c-0.053,0.232 -0.135,0.475 -0.245,0.729l-0.008 0.023c-0.114,0.255 -0.243,0.486 -0.387,0.69 -0.157,0.224 -0.336,0.428 -0.535,0.609 -0.348,0.324 -0.741,0.571 -1.178,0.741 -0.252,0.098 -0.51,0.168 -0.773,0.21 0.375,0.46 0.563,0.995 0.563,1.606 0,0.356 -0.068,0.698 -0.2,1.025 -0.129,0.315 -0.317,0.604 -0.564,0.864 -0.224,0.236 -0.48,0.429 -0.767,0.58 -0.264,0.138 -0.546,0.239 -0.846,0.303l-0.007 0c-0.357,0.074 -0.769,0.128 -1.234,0.161 -0.455,0.033 -0.95,0.05 -1.481,0.05 -0.543,0 -1.042,-0.027 -1.496,-0.08 -0.485,-0.056 -0.925,-0.15 -1.318,-0.281l-0.022 0c-0.551,-0.189 -0.997,-0.485 -1.335,-0.885 -0.413,-0.489 -0.62,-1.057 -0.62,-1.704 0,-0.507 0.142,-0.984 0.426,-1.427l0.003 0.002c0.161,-0.251 0.36,-0.477 0.597,-0.679 0.012,-0.133 0.022,-0.285 0.03,-0.455 0.012,-0.267 0.02,-0.638 0.023,-1.112 -0.138,-0.107 -0.264,-0.226 -0.378,-0.356 -0.413,-0.472 -0.619,-1.014 -0.619,-1.626 0,-0.474 0.123,-0.917 0.367,-1.33 0.204,-0.347 0.486,-0.646 0.841,-0.897l0.008 0c0.446,-0.311 1.077,-0.589 1.896,-0.833 0.495,-0.148 0.955,-0.26 1.38,-0.336 0.438,-0.079 0.875,-0.12 1.308,-0.125l0.015 -0.007z"/>
   <path class="fil6" d="M99.77 12.431l-0.009 0.006 0.01 -0.004 -0.001 -0.002zm1.671 -1.984l0.04 0.099c0.118,0.308 0.178,0.625 0.178,0.949 0,0.564 -0.166,1.102 -0.496,1.613 -0.248,0.382 -0.587,0.733 -1.017,1.05 -0.611,0.454 -1.263,0.795 -1.955,1.019l-0.007 0c-0.703,0.228 -1.434,0.342 -2.194,0.342 -1.617,0 -2.997,-0.489 -4.137,-1.465l-0.023 -0.015c-0.271,-0.24 -0.524,-0.506 -0.756,-0.8 -0.222,-0.281 -0.425,-0.594 -0.607,-0.938l-0.007 -0.008c-0.228,-0.437 -0.401,-0.897 -0.52,-1.38 -0.12,-0.488 -0.18,-0.974 -0.18,-1.458 0,-0.658 0.105,-1.297 0.313,-1.917 0.205,-0.607 0.51,-1.177 0.917,-1.713l-0.005 -0.004c0.341,-0.451 0.735,-0.848 1.182,-1.193 0.444,-0.343 0.93,-0.624 1.455,-0.843l0.001 0.003c0.409,-0.172 0.825,-0.299 1.246,-0.381 0.43,-0.083 0.865,-0.126 1.302,-0.126 0.716,0 1.401,0.109 2.053,0.327 0.661,0.221 1.263,0.552 1.805,0.993 0.28,0.227 0.531,0.472 0.753,0.734 0.223,0.263 0.422,0.552 0.596,0.865l0.003 -0.001c0.203,0.36 0.357,0.725 0.462,1.092 0.114,0.398 0.172,0.795 0.172,1.188 0,0.316 -0.042,0.634 -0.123,0.953 -0.093,0.363 -0.232,0.684 -0.413,0.962l-0.002 -0.001 -0.036 0.054z"/>
   <path class="fil5" d="M84.468 3.324c0.226,0 0.445,0.014 0.66,0.043 0.327,0.044 0.614,0.132 0.86,0.264 0.113,-0.039 0.235,-0.078 0.365,-0.116 0.259,-0.076 0.509,-0.133 0.752,-0.172 0.288,-0.046 0.544,-0.07 0.769,-0.07 1.168,0 2.211,0.403 3.124,1.208 0.32,0.283 0.605,0.604 0.855,0.961 0.243,0.348 0.449,0.725 0.616,1.13 0.174,0.422 0.302,0.843 0.384,1.261 0.085,0.437 0.128,0.875 0.128,1.314 0,1.921 -0.663,3.521 -1.989,4.791 -0.529,0.511 -1.105,0.899 -1.726,1.163 -0.355,0.151 -0.719,0.262 -1.091,0.331 -0.014,0.535 -0.181,1.023 -0.499,1.464l0 0.007c-0.276,0.381 -0.648,0.685 -1.118,0.912l0.001 0.003c-0.341,0.167 -0.734,0.289 -1.176,0.366 -0.374,0.064 -0.778,0.097 -1.214,0.097 -1.496,0 -2.838,-0.316 -4.023,-0.947l-0.003 0.006c-0.462,-0.245 -0.838,-0.559 -1.127,-0.94 -0.376,-0.494 -0.563,-1.039 -0.563,-1.632 0,-0.239 0.032,-0.48 0.099,-0.721 0.086,-0.309 0.228,-0.588 0.428,-0.835l-0.002 -0.001c0.151,-0.189 0.343,-0.362 0.573,-0.517l0.021 -0.387c0.025,-0.512 0.045,-1.14 0.06,-1.881 -0.011,-0.366 -0.023,-0.697 -0.038,-0.995 -0.224,-0.141 -0.425,-0.316 -0.601,-0.523 -0.204,-0.241 -0.358,-0.512 -0.462,-0.812 -0.101,-0.289 -0.152,-0.58 -0.152,-0.872 0,-0.351 0.063,-0.685 0.19,-1.007 0.118,-0.297 0.295,-0.575 0.533,-0.837l-0.004 -0.003c0.188,-0.209 0.411,-0.398 0.671,-0.568 0.187,-0.122 0.421,-0.247 0.7,-0.374l0.007 -0.008c0.739,-0.334 1.429,-0.594 2.068,-0.78 0.698,-0.203 1.332,-0.308 1.902,-0.316l0.022 -0.007z"/>
   <path class="fil2" d="M75.541 3.273c1.361,0 2.543,0.366 3.546,1.097l0.007 0c0.304,0.224 0.565,0.467 0.784,0.728 0.237,0.285 0.431,0.602 0.579,0.951l0.007 0.015c0.132,0.317 0.227,0.662 0.282,1.032 0.05,0.326 0.075,0.68 0.075,1.061l-0.008 0.022 -0.016 1.209 0.007 0c0,0.175 0.002,0.33 0.006,0.465 0.193,0.13 0.364,0.292 0.512,0.488l-0.005 0.004c0.303,0.401 0.455,0.859 0.455,1.373 0,0.355 -0.071,0.718 -0.213,1.088 -0.112,0.29 -0.271,0.574 -0.478,0.852l0.002 0.002c-0.184,0.25 -0.398,0.483 -0.644,0.698 -0.239,0.209 -0.488,0.388 -0.746,0.538 -0.339,0.199 -0.699,0.352 -1.078,0.458 -0.391,0.11 -0.782,0.165 -1.172,0.165 -0.537,0 -1.044,-0.104 -1.523,-0.311 -0.114,-0.05 -0.226,-0.105 -0.333,-0.165 -0.188,0.088 -0.382,0.165 -0.581,0.229 -0.513,0.164 -1.037,0.247 -1.572,0.247 -0.513,0 -1,-0.061 -1.459,-0.182 -0.502,-0.133 -0.958,-0.34 -1.364,-0.621l-0.008 -0.007c-0.287,-0.201 -0.535,-0.421 -0.74,-0.656l0 -0.008c-0.21,-0.242 -0.393,-0.509 -0.544,-0.799 -0.16,-0.303 -0.278,-0.61 -0.356,-0.923l0 -0.007c-0.082,-0.33 -0.123,-0.655 -0.123,-0.976 0,-0.929 0.298,-1.75 0.893,-2.47 -0.071,-0.116 -0.132,-0.237 -0.183,-0.363l0.004 -0.001c-0.14,-0.343 -0.209,-0.698 -0.209,-1.06 0,-0.702 0.243,-1.362 0.74,-1.977 0.192,-0.238 0.413,-0.458 0.662,-0.658 0.234,-0.188 0.489,-0.358 0.763,-0.509l0.029 -0.015c0.637,-0.337 1.285,-0.59 1.943,-0.757l0.008 0c0.675,-0.171 1.359,-0.257 2.051,-0.257zm5.253 6.95c-0.007,-0.008 -0.01,-0.011 -0.004,0.002l0.004 -0.002z"/>
   <path class="fil9" d="M59.078 9.512l0 -4.213c-0.281,-0.142 -0.527,-0.318 -0.739,-0.528 -0.498,-0.497 -0.748,-1.093 -0.748,-1.788 0,-0.442 0.105,-0.856 0.315,-1.238l0.003 0.001c0.212,-0.384 0.503,-0.695 0.875,-0.931l0.029 -0.015c0.29,-0.178 0.614,-0.307 0.973,-0.384 0.285,-0.062 0.593,-0.094 0.921,-0.094 0.091,0 0.039,0.005 0.389,0.014l0.593 0.017 0 -0.006 0.496 0 0 0.007 1.066 -0.008c0.204,-0.002 0.353,-0.006 0.446,-0.011l0.497 -0.045c0.958,-0.083 0.897,-0.075 1.104,-0.094 0.212,-0.021 0.391,-0.036 0.532,-0.044 0.233,-0.012 0.41,-0.019 0.522,-0.019 0.582,0 1.149,0.063 1.702,0.189 0.55,0.126 1.077,0.321 1.579,0.584l0.003 -0.006c0.921,0.479 1.628,1.127 2.121,1.942 0.494,0.816 0.741,1.742 0.741,2.776 0,0.846 -0.169,1.624 -0.507,2.332 -0.34,0.715 -0.843,1.334 -1.506,1.856l-0.008 0c-0.581,0.455 -1.223,0.797 -1.925,1.024 -0.394,0.127 -0.799,0.217 -1.217,0.271 0.307,0.421 0.46,0.884 0.46,1.387 0,0.686 -0.248,1.281 -0.745,1.784l-0.007 0.008c-0.332,0.334 -0.767,0.597 -1.305,0.787l0.001 0.003c-0.399,0.14 -0.853,0.243 -1.361,0.307 -0.452,0.057 -0.958,0.086 -1.516,0.086 -1.226,0 -2.195,-0.123 -2.906,-0.367 -1.361,-0.468 -2.043,-1.326 -2.043,-2.577 0,-0.286 0.049,-0.566 0.144,-0.838 0.121,-0.343 0.302,-0.636 0.543,-0.877l0.022 -0.015c0.123,-0.118 0.272,-0.236 0.448,-0.351 0.007,-0.265 0.013,-0.574 0.016,-0.926l-0.008 0z"/>
   <path class="fil11" d="M51.656 5.612c0.051,0 0.158,0.005 0.316,0.013l0.007 0c0.112,0.007 0.219,0.016 0.321,0.027 0.265,0.029 0.534,0.053 0.808,0.073 0.186,0.013 0.358,0.02 0.514,0.02 0.247,0 0.396,-0.005 0.444,-0.013l0.081 -0.008 0.287 -0.036c0.152,-0.017 0.265,-0.025 0.337,-0.025 0.75,0 1.333,0.311 1.751,0.929 0.265,0.391 0.397,0.838 0.397,1.34 0,0.216 -0.024,0.46 -0.07,0.729 -0.033,0.193 -0.088,0.423 -0.165,0.691l0.003 0.001c-0.071,0.252 -0.149,0.486 -0.23,0.7 -0.09,0.235 -0.187,0.461 -0.292,0.675l-0.022 0.03c-0.114,0.222 -0.202,0.381 -0.263,0.478 -0.121,0.191 -0.255,0.36 -0.398,0.507 -0.217,0.224 -0.464,0.398 -0.739,0.52 -0.297,0.131 -0.609,0.198 -0.931,0.198 -0.085,0 -0.21,-0.009 -0.372,-0.026l-0.008 0c-0.111,-0.012 -0.223,-0.027 -0.334,-0.046 -0.182,-0.03 -0.388,-0.054 -0.619,-0.071 -0.215,-0.015 -0.47,-0.024 -0.767,-0.024 -0.244,0 -0.431,0.007 -0.557,0.019l-0.314 0.026c-0.148,0.01 -0.244,0.014 -0.285,0.014 -1.486,0 -2.23,-0.763 -2.23,-2.289 0,-0.351 0.095,-0.837 0.283,-1.445 0.077,-0.245 0.155,-0.473 0.236,-0.681 0.094,-0.245 0.188,-0.454 0.28,-0.626l0.015 -0.03c0.109,-0.192 0.221,-0.368 0.337,-0.527 0.153,-0.208 0.322,-0.389 0.507,-0.542 0.242,-0.202 0.51,-0.354 0.803,-0.454 0.249,-0.084 0.522,-0.131 0.818,-0.14l0.051 -0.007z"/>
   <path class="fil12" d="M40.547 2.603l-0.026 0.876c0.458,-0.092 0.987,-0.138 1.588,-0.138 0.422,0 0.842,0.026 1.258,0.079 0.447,0.058 0.838,0.145 1.172,0.263 0.246,0.086 0.482,0.208 0.706,0.368 0.225,0.159 0.425,0.351 0.596,0.573 0.179,0.231 0.317,0.476 0.412,0.734 0.107,0.292 0.162,0.591 0.162,0.898 0,0.51 -0.141,0.97 -0.422,1.379 -0.272,0.397 -0.639,0.691 -1.101,0.883l-0.001 -0.003 -0.019 0.008 0.153 0.203c0.235,0.304 0.429,0.547 0.583,0.731l0.015 0.015c0.081,0.098 0.176,0.207 0.287,0.328l-0.004 0.004c0.038,0.042 0.072,0.076 0.102,0.102l0.071 0.048 -0.003 0.003c0.048,0.031 0.123,0.075 0.224,0.13 0.413,0.228 0.746,0.497 0.999,0.811 0.379,0.471 0.569,0.996 0.569,1.573 0,0.457 -0.11,0.89 -0.331,1.293l0 0.008c-0.208,0.379 -0.507,0.701 -0.895,0.957l0.001 0.001c-0.304,0.201 -0.654,0.35 -1.051,0.445 -0.336,0.08 -0.675,0.121 -1.021,0.121l-2.677 0 -0.029 -0.007c-0.446,-0.008 -0.855,-0.099 -1.225,-0.275 -0.18,-0.086 -0.348,-0.188 -0.503,-0.308 -0.19,0.137 -0.402,0.255 -0.635,0.353l-0.014 0.008c-0.356,0.146 -0.786,0.252 -1.292,0.316 -0.412,0.052 -0.893,0.079 -1.442,0.081 -0.633,-0.002 -1.129,-0.014 -1.483,-0.037 -0.493,-0.032 -0.885,-0.089 -1.177,-0.171l-0.037 -0.015c-0.292,-0.088 -0.557,-0.213 -0.792,-0.377 -0.224,-0.156 -0.433,-0.357 -0.625,-0.601 -0.193,-0.247 -0.339,-0.504 -0.437,-0.77 -0.112,-0.304 -0.167,-0.612 -0.167,-0.923 0,-0.46 0.13,-0.896 0.388,-1.303l-0.005 -0.003c0.147,-0.232 0.336,-0.442 0.569,-0.629 0.022,-0.227 0.041,-0.485 0.056,-0.774 0.029,-0.591 0.043,-1.261 0.04,-2.011l-0.007 0 0 -1.774c-0.135,-0.075 -0.261,-0.161 -0.378,-0.259l-0.004 0.005c-0.571,-0.474 -0.857,-1.085 -0.857,-1.832 0,-0.403 0.099,-0.792 0.296,-1.17 0.164,-0.313 0.386,-0.59 0.666,-0.83l0.014 -0.007c0.21,-0.176 0.459,-0.338 0.746,-0.486 0.257,-0.13 0.521,-0.246 0.792,-0.346 0.783,-0.289 1.475,-0.509 2.076,-0.66 0.692,-0.173 1.285,-0.259 1.782,-0.259 1.618,0 2.403,0.79 2.337,2.371z"/>
   <path class="fil13" d="M29.785 3.281c0.657,0 1.29,0.087 1.896,0.258 0.612,0.174 1.191,0.44 1.734,0.796 0.595,0.392 1.054,0.852 1.376,1.379 0.365,0.596 0.547,1.243 0.547,1.938 0,0.488 -0.092,0.952 -0.279,1.39l-0.002 -0.001c-0.133,0.312 -0.305,0.594 -0.518,0.846 0.13,0.195 0.235,0.406 0.313,0.632l0 0.007c0.109,0.314 0.164,0.629 0.164,0.944 0,0.356 -0.069,0.714 -0.21,1.07 -0.108,0.276 -0.267,0.554 -0.476,0.832l0.002 0.002c-0.174,0.235 -0.377,0.456 -0.61,0.665 -0.218,0.194 -0.456,0.371 -0.715,0.532l-0.008 0.007c-0.512,0.314 -1.072,0.551 -1.68,0.71 -0.593,0.153 -1.206,0.231 -1.839,0.231 -0.768,0 -1.496,-0.117 -2.182,-0.351 -0.705,-0.241 -1.347,-0.6 -1.922,-1.075l0.002 -0.003c-0.724,-0.593 -1.274,-1.283 -1.651,-2.068 -0.384,-0.8 -0.576,-1.662 -0.576,-2.584 0,-0.895 0.179,-1.727 0.535,-2.498 0.352,-0.763 0.872,-1.439 1.558,-2.027 0.634,-0.544 1.338,-0.954 2.11,-1.227 0.76,-0.269 1.57,-0.405 2.431,-0.405z"/>
   <path class="fil11" d="M20.001 3.273c0.674,0 1.325,0.093 1.95,0.278 0.631,0.186 1.219,0.467 1.764,0.841l0.002 -0.002c0.391,0.268 0.751,0.585 1.078,0.95 0.323,0.36 0.599,0.748 0.827,1.164l0.008 0.008c0.235,0.433 0.418,0.897 0.547,1.391 0.129,0.496 0.195,0.988 0.195,1.476 0,0.911 -0.214,1.762 -0.641,2.553 -0.403,0.747 -0.987,1.412 -1.75,1.997 -0.684,0.521 -1.43,0.917 -2.239,1.187 -0.806,0.268 -1.641,0.403 -2.503,0.403 -0.86,0 -1.663,-0.131 -2.405,-0.392 -0.774,-0.272 -1.462,-0.683 -2.062,-1.233 -0.608,-0.557 -1.063,-1.198 -1.367,-1.922 -0.296,-0.71 -0.444,-1.481 -0.444,-2.311 0,-0.913 0.181,-1.764 0.54,-2.556 0.359,-0.786 0.885,-1.476 1.578,-2.068 0.687,-0.59 1.448,-1.032 2.283,-1.327 0.825,-0.291 1.704,-0.437 2.639,-0.437z"/>
   <path class="fil8" d="M8.868 14.62c-0.276,0.215 -0.604,0.385 -0.983,0.511l0 0.007c-0.346,0.114 -0.794,0.199 -1.343,0.252 -0.49,0.048 -1.019,0.073 -1.584,0.073 -1.243,0 -2.229,-0.139 -2.959,-0.416 -1.327,-0.503 -1.991,-1.382 -1.991,-2.635 0,-0.238 0.033,-0.471 0.097,-0.694l0.002 0.001c0.078,-0.272 0.205,-0.526 0.376,-0.753l0 -0.007c0.123,-0.164 0.282,-0.322 0.475,-0.477 0.057,-0.047 0.124,-0.097 0.2,-0.152 0.011,-0.1 0.022,-0.227 0.031,-0.384l0 -0.014c0.015,-0.208 0.026,-0.616 0.032,-1.226 0.002,-0.214 0.003,-1.157 0.003,-2.848 0,-0.297 -0.005,-0.537 -0.015,-0.721l-0.044 -0.029 0.002 -0.003c-0.224,-0.147 -0.419,-0.316 -0.581,-0.507l-0.004 0.003c-0.205,-0.239 -0.357,-0.51 -0.455,-0.809 -0.084,-0.257 -0.127,-0.522 -0.127,-0.795 0,-0.36 0.077,-0.712 0.229,-1.053 0.134,-0.301 0.328,-0.574 0.58,-0.818l-0.004 -0.004c0.223,-0.217 0.472,-0.398 0.748,-0.538l0.003 0.006c0.249,-0.128 0.507,-0.225 0.771,-0.291l0.001 0.003c0.209,-0.053 0.445,-0.092 0.708,-0.116 0.273,-0.025 0.512,-0.036 0.722,-0.036 0.088,0 0.292,0.009 0.617,0.028 0.305,0.018 0.607,0.039 0.889,0.061l0.17 0.013c0.077,0.001 0.038,-0.003 0.342,-0.003 0.288,0 0.546,-0.007 0.779,-0.018 0.231,-0.012 0.59,-0.037 1.064,-0.074 0.188,-0.014 0.424,-0.029 0.712,-0.044 0.274,-0.015 0.452,-0.022 0.528,-0.022 0.753,0 1.467,0.098 2.141,0.294 0.708,0.206 1.342,0.515 1.901,0.927l0.007 0.007c0.598,0.442 1.05,0.977 1.357,1.605 0.301,0.616 0.452,1.297 0.452,2.043 0,0.832 -0.209,1.611 -0.625,2.326l0.003 0.001 -0.051 0.085c0.154,0.169 0.294,0.353 0.421,0.551l0.007 0c0.224,0.354 0.412,0.783 0.562,1.288 0.092,0.311 0.17,0.661 0.234,1.049 0.133,0.068 0.257,0.148 0.374,0.241 0.201,0.159 0.373,0.35 0.518,0.569 0.14,0.211 0.246,0.438 0.318,0.682l0 0.007c0.071,0.247 0.107,0.484 0.107,0.714 0,0.312 -0.058,0.623 -0.175,0.929l-0.007 0c-0.097,0.252 -0.232,0.495 -0.407,0.724l-0.007 0.015c-0.162,0.21 -0.344,0.397 -0.547,0.558 -0.196,0.157 -0.415,0.292 -0.654,0.405l-0.015 0.008c-0.381,0.177 -0.815,0.307 -1.302,0.389 -0.432,0.073 -0.895,0.11 -1.389,0.11 -0.756,0 -1.434,-0.111 -2.031,-0.331 -0.445,-0.164 -0.839,-0.386 -1.183,-0.667z"/>
   <path class="fil14" d="M170.098 5.164c1.007,0 1.893,0.262 2.652,0.784 0.547,0.375 0.985,0.864 1.315,1.464 0.341,0.63 0.513,1.284 0.513,1.967 0,1.196 -0.55,2.212 -1.644,3.05 -1.047,0.798 -2.246,1.199 -3.597,1.199 -1.315,0 -2.382,-0.375 -3.197,-1.123 -0.796,-0.728 -1.191,-1.676 -1.191,-2.844 0,-1.301 0.485,-2.364 1.453,-3.191 1.016,-0.871 2.246,-1.306 3.696,-1.306zm-0.663 1.91c-0.243,0 -0.434,0.09 -0.581,0.268 -0.147,0.181 -0.22,0.418 -0.22,0.714 0,0.333 0.062,0.781 0.186,1.351 0.124,0.573 0.271,1.078 0.443,1.518 0.169,0.451 0.449,0.677 0.835,0.677 0.491,0 0.736,-0.31 0.736,-0.934 0,-0.462 -0.062,-0.987 -0.186,-1.577 -0.124,-0.589 -0.276,-1.069 -0.451,-1.439 -0.181,-0.375 -0.435,-0.567 -0.762,-0.578z"/>
   <path class="fil14" d="M99.319 9.701l-3.884 0c-0.17,0 -0.254,0.076 -0.254,0.225 0,0.359 0.191,0.694 0.581,1.01 0.389,0.319 0.807,0.477 1.252,0.477 0.266,0 0.559,-0.051 0.881,-0.152 0.321,-0.102 0.59,-0.229 0.798,-0.378 0.186,-0.13 0.336,-0.198 0.446,-0.198 0.144,0 0.285,0.088 0.42,0.266 0.139,0.174 0.209,0.358 0.209,0.544 0,0.398 -0.248,0.781 -0.745,1.148 -0.877,0.658 -1.887,0.985 -3.033,0.985 -1.156,0 -2.127,-0.336 -2.911,-1.007 -0.378,-0.333 -0.694,-0.731 -0.943,-1.199 -0.324,-0.624 -0.485,-1.278 -0.485,-1.967 0,-0.928 0.279,-1.757 0.841,-2.497 0.485,-0.64 1.103,-1.117 1.854,-1.43 0.561,-0.237 1.171,-0.355 1.825,-0.355 1.047,0 1.938,0.296 2.669,0.891 0.369,0.299 0.668,0.652 0.894,1.058 0.26,0.463 0.389,0.917 0.389,1.357 0,0.358 -0.076,0.652 -0.225,0.88 -0.147,0.229 -0.341,0.342 -0.579,0.342zm-3.667 -1.544l0.835 0c0.353,0 0.527,-0.163 0.527,-0.488 0,-0.299 -0.084,-0.541 -0.256,-0.728 -0.169,-0.186 -0.392,-0.282 -0.669,-0.282 -0.307,0 -0.55,0.121 -0.728,0.364 -0.166,0.226 -0.248,0.454 -0.248,0.686 0,0.166 0.04,0.282 0.121,0.347 0.079,0.068 0.218,0.101 0.418,0.101z"/>
   <path class="fil14" d="M84.468 5.215c0.336,0 0.545,0.028 0.629,0.084 0.082,0.06 0.124,0.203 0.124,0.435 0,0.203 0.065,0.307 0.198,0.307 0.053,0 0.24,-0.104 0.553,-0.316 0.237,-0.158 0.539,-0.293 0.905,-0.4 0.367,-0.108 0.697,-0.161 0.997,-0.161 0.699,0 1.326,0.243 1.876,0.728 0.417,0.37 0.744,0.835 0.976,1.396 0.242,0.59 0.364,1.211 0.364,1.859 0,1.389 -0.468,2.534 -1.405,3.432 -0.722,0.699 -1.544,1.049 -2.466,1.049 -0.469,0 -0.948,-0.11 -1.445,-0.33 -0.098,-0.045 -0.18,-0.068 -0.239,-0.068 -0.167,0 -0.249,0.166 -0.249,0.497 0,0.437 0.147,0.75 0.438,0.942 0.271,0.183 0.431,0.305 0.485,0.37 0.051,0.062 0.076,0.169 0.076,0.316 0,0.333 -0.183,0.586 -0.553,0.764 -0.369,0.181 -0.889,0.271 -1.563,0.271 -1.193,0 -2.24,-0.24 -3.14,-0.719 -0.457,-0.243 -0.686,-0.545 -0.686,-0.903 0,-0.164 0.034,-0.291 0.105,-0.376 0.068,-0.084 0.2,-0.175 0.4,-0.268 0.285,-0.132 0.46,-0.372 0.525,-0.719 0.062,-0.347 0.11,-1.346 0.144,-2.994 -0.039,-1.354 -0.087,-2.115 -0.15,-2.279 -0.022,-0.057 -0.053,-0.09 -0.092,-0.107 -0.043,-0.017 -0.178,-0.048 -0.41,-0.093 -0.177,-0.031 -0.321,-0.113 -0.431,-0.243 -0.11,-0.13 -0.164,-0.285 -0.164,-0.465 0,-0.223 0.076,-0.415 0.231,-0.585 0.153,-0.169 0.404,-0.333 0.751,-0.491 1.351,-0.612 2.424,-0.922 3.216,-0.933zm0.818 3.123l-0.124 2.274c-0.006,0.093 -0.008,0.183 -0.008,0.271 0,0.172 0.073,0.31 0.223,0.415 0.149,0.104 0.347,0.158 0.595,0.158 0.762,0 1.14,-0.627 1.14,-1.877 0,-0.812 -0.158,-1.382 -0.477,-1.712 -0.2,-0.203 -0.437,-0.305 -0.711,-0.305 -0.392,0 -0.604,0.257 -0.638,0.776z"/>
   <path class="fil14" d="M75.541 5.164c0.96,0 1.772,0.243 2.438,0.728 0.353,0.259 0.601,0.556 0.742,0.888 0.138,0.333 0.209,0.793 0.209,1.377l-0.017 1.231c0,0.854 0.062,1.407 0.183,1.661 0.059,0.121 0.119,0.198 0.175,0.232 0.054,0.034 0.169,0.062 0.347,0.09 0.175,0.028 0.263,0.144 0.263,0.347 0,0.265 -0.105,0.542 -0.319,0.827 -0.212,0.287 -0.485,0.527 -0.821,0.719 -0.415,0.243 -0.847,0.364 -1.298,0.364 -0.578,0 -1.035,-0.198 -1.371,-0.595 -0.116,-0.144 -0.223,-0.215 -0.325,-0.215 -0.109,0 -0.253,0.068 -0.437,0.206 -0.55,0.403 -1.176,0.604 -1.876,0.604 -0.722,0 -1.306,-0.155 -1.752,-0.463 -0.291,-0.203 -0.525,-0.471 -0.694,-0.798 -0.172,-0.327 -0.257,-0.669 -0.257,-1.027 0,-0.576 0.231,-1.081 0.694,-1.524 0.723,-0.694 1.803,-1.044 3.242,-1.049 0.319,0 0.519,-0.031 0.604,-0.093 0.081,-0.065 0.121,-0.212 0.121,-0.443 0,-0.584 -0.06,-1.007 -0.181,-1.27 -0.121,-0.259 -0.319,-0.392 -0.595,-0.392 -0.166,0 -0.313,0.051 -0.443,0.15 -0.13,0.098 -0.29,0.279 -0.482,0.544 -0.491,0.7 -1.005,1.05 -1.538,1.05 -0.271,0 -0.491,-0.079 -0.66,-0.24 -0.172,-0.158 -0.257,-0.37 -0.257,-0.627 0,-0.265 0.105,-0.53 0.319,-0.795 0.211,-0.263 0.499,-0.494 0.863,-0.694 0.996,-0.528 2.037,-0.793 3.123,-0.793zm-0.552 4.785c-0.243,0 -0.455,0.099 -0.632,0.299 -0.181,0.197 -0.269,0.435 -0.269,0.711 0,0.265 0.062,0.477 0.189,0.641 0.127,0.16 0.294,0.242 0.505,0.242 0.441,0 0.661,-0.372 0.661,-1.114 0,-0.305 -0.031,-0.508 -0.096,-0.613 -0.062,-0.104 -0.183,-0.161 -0.358,-0.166z"/>
   <path class="fil14" d="M60.969 9.512l0 -4.348c0,-0.562 -0.036,-0.92 -0.116,-1.069 -0.076,-0.153 -0.284,-0.277 -0.626,-0.37 -0.496,-0.141 -0.745,-0.389 -0.745,-0.742 0,-0.248 0.105,-0.44 0.314,-0.573 0.211,-0.129 0.513,-0.197 0.911,-0.197 0.132,0 0.46,0.008 0.982,0.025l0.496 0c0.914,-0.005 1.451,-0.011 1.608,-0.02 0.158,-0.008 0.717,-0.056 1.682,-0.146 0.319,-0.031 0.612,-0.048 0.877,-0.048 0.903,0 1.707,0.183 2.412,0.553 1.231,0.64 1.843,1.653 1.843,3.041 0,1.126 -0.429,2.026 -1.289,2.703 -0.81,0.635 -1.789,0.951 -2.943,0.951 -0.291,0 -0.649,-0.02 -1.072,-0.057 -0.226,-0.016 -0.367,-0.025 -0.423,-0.025 -0.158,0 -0.24,0.091 -0.24,0.274l0 0.048 0.059 1.357c0.011,0.262 0.059,0.459 0.144,0.589 0.084,0.13 0.259,0.263 0.525,0.401 0.358,0.192 0.536,0.404 0.536,0.629 0,0.347 -0.263,0.615 -0.793,0.801 -0.528,0.187 -1.278,0.282 -2.249,0.282 -2.037,0 -3.058,-0.349 -3.058,-1.052 0,-0.164 0.045,-0.29 0.133,-0.378 0.09,-0.087 0.296,-0.214 0.62,-0.381 0.198,-0.104 0.313,-0.251 0.347,-0.437 0.034,-0.189 0.057,-0.793 0.065,-1.811zm3.73 -5.398l0 2.81c0,0.215 0.045,0.345 0.141,0.39 0.158,0.076 0.358,0.115 0.601,0.115 0.364,0 0.671,-0.101 0.92,-0.307 0.358,-0.291 0.536,-0.782 0.536,-1.47 0,-0.717 -0.209,-1.236 -0.629,-1.555 -0.263,-0.203 -0.584,-0.304 -0.957,-0.304 -0.409,0 -0.612,0.107 -0.612,0.321z"/>
   <path class="fil14" d="M20.001 5.164c1.007,0 1.893,0.262 2.652,0.785 0.547,0.374 0.984,0.863 1.314,1.463 0.342,0.63 0.514,1.284 0.514,1.967 0,1.196 -0.55,2.212 -1.645,3.05 -1.046,0.798 -2.245,1.199 -3.597,1.199 -1.315,0 -2.381,-0.376 -3.197,-1.123 -0.795,-0.728 -1.19,-1.676 -1.19,-2.844 0,-1.301 0.485,-2.364 1.453,-3.191 1.015,-0.871 2.245,-1.306 3.696,-1.306zm0.185 1.958c-0.226,-0.089 -0.437,-0.075 -0.639,0.036 -0.202,0.115 -0.357,0.309 -0.466,0.584 -0.121,0.31 -0.227,0.75 -0.32,1.326 -0.094,0.579 -0.142,1.102 -0.143,1.575 -0.007,0.482 0.17,0.794 0.53,0.936 0.457,0.179 0.798,-0.02 1.027,-0.6 0.169,-0.431 0.303,-0.942 0.403,-1.536 0.1,-0.595 0.134,-1.097 0.106,-1.505 -0.031,-0.415 -0.197,-0.686 -0.498,-0.816z"/>
   <path class="fil14" d="M7.404 8.659c-0.209,0 -0.342,0.065 -0.401,0.192 -0.057,0.127 -0.088,0.421 -0.088,0.884 0,0.699 0.046,1.247 0.133,1.636 0.028,0.11 0.071,0.197 0.124,0.257 0.057,0.062 0.161,0.135 0.316,0.222 0.33,0.184 0.494,0.423 0.494,0.72 0,0.364 -0.229,0.621 -0.688,0.773 -0.46,0.152 -1.239,0.228 -2.336,0.228 -2.04,0 -3.059,-0.386 -3.059,-1.159 0,-0.13 0.031,-0.237 0.091,-0.316 0.062,-0.082 0.2,-0.192 0.414,-0.336 0.243,-0.16 0.406,-0.35 0.491,-0.567 0.085,-0.217 0.144,-0.592 0.178,-1.129 0.028,-0.389 0.042,-1.791 0.042,-4.206 0,-0.765 -0.039,-1.287 -0.115,-1.563 -0.079,-0.274 -0.243,-0.474 -0.497,-0.601 -0.243,-0.115 -0.406,-0.223 -0.488,-0.319 -0.082,-0.096 -0.124,-0.223 -0.124,-0.378 0,-0.203 0.079,-0.381 0.237,-0.53 0.155,-0.152 0.375,-0.266 0.657,-0.336 0.237,-0.062 0.562,-0.09 0.973,-0.09 0.184,0 0.638,0.025 1.366,0.082 0.135,0.011 0.355,0.017 0.652,0.017 0.496,0 1.157,-0.034 1.983,-0.099 0.525,-0.04 0.892,-0.059 1.1,-0.059 1.18,0 2.156,0.284 2.926,0.851 0.694,0.514 1.041,1.222 1.041,2.134 0,0.505 -0.121,0.967 -0.364,1.382 -0.242,0.417 -0.575,0.731 -0.999,0.939 -0.177,0.088 -0.265,0.192 -0.265,0.314 0,0.16 0.136,0.29 0.407,0.389 0.578,0.209 1.001,0.527 1.272,0.951 0.268,0.423 0.463,1.075 0.578,1.949 0.049,0.364 0.122,0.601 0.215,0.709 0.093,0.107 0.31,0.211 0.651,0.31 0.108,0.031 0.195,0.101 0.266,0.208 0.073,0.111 0.107,0.229 0.107,0.362 0,0.169 -0.065,0.341 -0.198,0.516 -0.132,0.172 -0.304,0.31 -0.513,0.409 -0.463,0.214 -1.094,0.322 -1.901,0.322 -1.073,0 -1.843,-0.283 -2.306,-0.852 -0.209,-0.252 -0.386,-0.573 -0.533,-0.957 -0.146,-0.386 -0.319,-0.987 -0.516,-1.803 -0.127,-0.525 -0.288,-0.891 -0.483,-1.108 -0.197,-0.215 -0.476,-0.331 -0.84,-0.348zm-0.48 -4.215l-0.09 1.927c0,0.017 0,0.04 0,0.074 0,0.197 0.028,0.33 0.087,0.398 0.057,0.065 0.175,0.098 0.35,0.098 0.485,0 0.838,-0.124 1.058,-0.375 0.223,-0.251 0.333,-0.652 0.333,-1.205 0,-1.063 -0.378,-1.594 -1.134,-1.594 -0.215,0 -0.367,0.051 -0.455,0.15 -0.087,0.099 -0.138,0.274 -0.149,0.527z"/>
   <path class="fil14" d="M152.154 5.173c0.277,0 0.726,0.059 1.349,0.18 0.127,0.023 0.231,0.034 0.313,0.034 0.093,0 0.277,-0.048 0.545,-0.15 0.127,-0.048 0.234,-0.073 0.324,-0.073 0.254,0 0.508,0.164 0.767,0.488 0.209,0.26 0.381,0.542 0.514,0.852 0.132,0.308 0.197,0.576 0.197,0.801 0,0.22 -0.075,0.404 -0.231,0.551 -0.155,0.144 -0.347,0.217 -0.578,0.217 -0.192,0 -0.364,-0.046 -0.517,-0.138 -0.152,-0.096 -0.394,-0.302 -0.73,-0.621 -0.353,-0.342 -0.646,-0.514 -0.878,-0.514 -0.155,0 -0.288,0.057 -0.4,0.17 -0.113,0.112 -0.17,0.248 -0.17,0.4 0,0.271 0.26,0.525 0.776,0.762 0.931,0.418 1.645,0.875 2.142,1.371 0.42,0.42 0.629,0.931 0.629,1.538 0,0.767 -0.336,1.405 -1.01,1.918 -0.578,0.446 -1.287,0.669 -2.124,0.669 -0.215,0 -0.605,-0.037 -1.174,-0.107 -0.534,-0.06 -0.833,-0.091 -0.9,-0.091 -0.071,0 -0.155,0.009 -0.249,0.026 -0.158,0.02 -0.273,0.031 -0.346,0.031 -0.26,0 -0.463,-0.065 -0.613,-0.198 -0.226,-0.203 -0.434,-0.524 -0.626,-0.962 -0.195,-0.44 -0.291,-0.815 -0.291,-1.128 0,-0.508 0.198,-0.762 0.595,-0.762 0.156,0 0.297,0.051 0.427,0.152 0.129,0.105 0.4,0.376 0.815,0.816 0.226,0.243 0.412,0.409 0.561,0.499 0.15,0.09 0.308,0.138 0.48,0.138 0.181,0 0.327,-0.048 0.437,-0.146 0.11,-0.096 0.167,-0.223 0.167,-0.384 0,-0.248 -0.215,-0.474 -0.638,-0.677 -0.889,-0.435 -1.529,-0.886 -1.921,-1.349 -0.395,-0.462 -0.593,-0.996 -0.593,-1.602 0,-0.655 0.204,-1.222 0.604,-1.696 0.573,-0.677 1.357,-1.015 2.347,-1.015z"/>
   <path class="fil14" d="M145.773 2.123c0.479,0 0.86,0.09 1.14,0.268 0.282,0.18 0.423,0.42 0.423,0.725 0,0.423 -0.212,0.759 -0.638,1.007 -0.672,0.392 -1.484,0.587 -2.437,0.587 -0.404,0 -0.723,-0.076 -0.96,-0.232 -0.319,-0.197 -0.479,-0.474 -0.479,-0.826 0,-0.474 0.338,-0.847 1.018,-1.118 0.689,-0.273 1.332,-0.411 1.933,-0.411z"/>
   <path class="fil14" d="M147.409 5.742l0 4.802c0,0.381 0.034,0.66 0.104,0.835 0.068,0.178 0.209,0.339 0.418,0.488 0.169,0.122 0.285,0.226 0.341,0.311 0.06,0.085 0.088,0.194 0.088,0.327 0,0.711 -0.9,1.066 -2.703,1.066 -0.97,0 -1.738,-0.079 -2.305,-0.231 -0.195,-0.056 -0.35,-0.152 -0.469,-0.29 -0.118,-0.138 -0.177,-0.294 -0.177,-0.471 0,-0.15 0.031,-0.266 0.09,-0.348 0.062,-0.081 0.217,-0.214 0.466,-0.398 0.169,-0.126 0.29,-0.332 0.361,-0.617 0.073,-0.288 0.11,-0.714 0.11,-1.281 0,-0.183 -0.014,-0.525 -0.04,-1.021 -0.022,-0.5 -0.042,-0.79 -0.053,-0.872 -0.031,-0.226 -0.186,-0.401 -0.463,-0.522 -0.342,-0.15 -0.51,-0.37 -0.51,-0.66 0,-0.347 0.222,-0.607 0.668,-0.779 0.618,-0.237 1.278,-0.437 1.983,-0.604 0.706,-0.163 1.25,-0.245 1.637,-0.245 0.304,0 0.454,0.169 0.454,0.51z"/>
   <path class="fil14" d="M138.615 5.173c0.982,0 1.848,0.245 2.596,0.736 0.71,0.468 1.066,1.049 1.066,1.743 0,0.48 -0.164,0.869 -0.497,1.165 -0.307,0.283 -0.679,0.421 -1.114,0.421 -0.457,0 -0.801,-0.164 -1.033,-0.494 -0.073,-0.104 -0.177,-0.372 -0.316,-0.804 -0.146,-0.463 -0.431,-0.694 -0.849,-0.694 -0.305,0 -0.558,0.132 -0.764,0.398 -0.209,0.265 -0.311,0.59 -0.311,0.976 0,0.661 0.237,1.247 0.711,1.76 0.384,0.413 0.869,0.619 1.453,0.619 0.277,0 0.508,-0.023 0.694,-0.068 0.189,-0.048 0.435,-0.144 0.737,-0.288 0.076,-0.037 0.163,-0.057 0.256,-0.057 0.186,0 0.353,0.088 0.497,0.266 0.141,0.174 0.214,0.381 0.214,0.618 0,0.248 -0.101,0.51 -0.307,0.781 -0.203,0.274 -0.469,0.511 -0.801,0.717 -0.717,0.44 -1.561,0.66 -2.537,0.66 -1.134,0 -2.101,-0.33 -2.9,-0.99 -1.027,-0.838 -1.538,-1.905 -1.538,-3.2 0,-1.247 0.477,-2.277 1.428,-3.092 0.911,-0.781 2.014,-1.173 3.315,-1.173z"/>
   <path class="fil14" d="M127.996 1.891c0.567,0 1.311,0.142 2.231,0.421 0.11,0.033 0.198,0.05 0.265,0.05 0.054,0 0.22,-0.05 0.494,-0.149 0.09,-0.034 0.184,-0.048 0.282,-0.048 0.37,0 0.759,0.291 1.168,0.875 0.412,0.583 0.618,1.139 0.618,1.67 0,0.307 -0.093,0.57 -0.276,0.781 -0.186,0.212 -0.409,0.319 -0.675,0.319 -0.22,0 -0.4,-0.045 -0.539,-0.133 -0.135,-0.09 -0.44,-0.349 -0.908,-0.787 -0.66,-0.615 -1.312,-0.925 -1.95,-0.925 -0.31,0 -0.555,0.076 -0.739,0.223 -0.186,0.149 -0.279,0.344 -0.279,0.587 0,0.479 0.423,0.841 1.267,1.083 1.14,0.336 1.87,0.581 2.189,0.737 1.405,0.682 2.107,1.689 2.107,3.015 0,1.174 -0.479,2.133 -1.438,2.878 -0.979,0.759 -2.263,1.14 -3.843,1.14 -0.705,0 -1.45,-0.084 -2.232,-0.251 -0.781,-0.169 -1.348,-0.367 -1.695,-0.593 -0.263,-0.175 -0.502,-0.558 -0.714,-1.151 -0.211,-0.592 -0.319,-1.171 -0.319,-1.732 0,-0.271 0.057,-0.474 0.167,-0.612 0.138,-0.178 0.31,-0.265 0.519,-0.265 0.212,0 0.412,0.107 0.604,0.321 0.115,0.121 0.389,0.511 0.818,1.168 0.203,0.308 0.527,0.564 0.97,0.768 0.446,0.203 0.903,0.304 1.377,0.304 0.409,0 0.739,-0.073 0.993,-0.226 0.254,-0.152 0.381,-0.347 0.381,-0.583 0,-0.221 -0.101,-0.409 -0.299,-0.57 -0.198,-0.158 -0.519,-0.308 -0.968,-0.446 -0.787,-0.248 -1.388,-0.474 -1.8,-0.683 -0.415,-0.206 -0.801,-0.465 -1.156,-0.781 -0.872,-0.771 -1.307,-1.648 -1.307,-2.627 0,-0.485 0.113,-0.959 0.339,-1.419 0.226,-0.46 0.545,-0.858 0.959,-1.193 0.925,-0.776 2.054,-1.166 3.389,-1.166z"/>
   <path class="fil14" d="M115.068 7.503c0.138,0 0.282,0.008 0.438,0.025 0.665,0.071 1.176,0.107 1.529,0.107 0.358,0 0.617,-0.014 0.775,-0.042 0.19,-0.025 0.314,-0.04 0.373,-0.04 0.172,0 0.257,0.128 0.257,0.379 0,0.236 -0.051,0.542 -0.158,0.911 -0.105,0.37 -0.24,0.722 -0.404,1.058 -0.132,0.26 -0.245,0.435 -0.336,0.527 -0.09,0.094 -0.197,0.141 -0.318,0.141 -0.105,0 -0.24,-0.014 -0.404,-0.041 -0.49,-0.083 -1.055,-0.125 -1.695,-0.125 -0.268,0 -0.517,0.011 -0.742,0.034 -0.184,0.017 -0.322,0.025 -0.415,0.025 -0.226,0 -0.339,-0.132 -0.339,-0.398 0,-0.174 0.065,-0.474 0.195,-0.891 0.13,-0.417 0.254,-0.742 0.375,-0.968 0.15,-0.265 0.282,-0.445 0.401,-0.544 0.118,-0.099 0.274,-0.152 0.468,-0.158z"/>
   <path class="fil14" d="M104.519 5.223c0.294,0 0.472,0.04 0.533,0.124 0.065,0.082 0.122,0.347 0.173,0.793 0.025,0.243 0.112,0.364 0.253,0.364 0.111,0 0.218,-0.082 0.316,-0.24 0.441,-0.688 1.016,-1.032 1.727,-1.032 0.502,0 0.912,0.16 1.23,0.485 0.156,0.161 0.282,0.367 0.381,0.618 0.099,0.248 0.15,0.491 0.15,0.722 0,0.26 -0.062,0.525 -0.181,0.799 -0.121,0.27 -0.279,0.496 -0.471,0.671 -0.353,0.338 -0.787,0.505 -1.298,0.505 -0.282,0 -0.516,-0.048 -0.708,-0.15 -0.189,-0.098 -0.44,-0.299 -0.748,-0.6 -0.115,-0.116 -0.223,-0.175 -0.321,-0.175 -0.155,0 -0.257,0.087 -0.302,0.259 -0.048,0.175 -0.071,0.539 -0.071,1.098 0,0.829 0.031,1.399 0.091,1.701 0.039,0.167 0.093,0.279 0.161,0.344 0.07,0.062 0.217,0.127 0.442,0.192 0.497,0.149 0.745,0.409 0.745,0.779 0,0.225 -0.082,0.423 -0.24,0.589 -0.16,0.169 -0.372,0.28 -0.637,0.336 -0.528,0.11 -1.307,0.166 -2.331,0.166 -0.976,0 -1.715,-0.087 -2.223,-0.256 -0.451,-0.155 -0.677,-0.423 -0.677,-0.802 0,-0.287 0.164,-0.544 0.494,-0.77 0.161,-0.104 0.271,-0.2 0.333,-0.285 0.059,-0.084 0.101,-0.203 0.124,-0.352 0.087,-0.5 0.13,-1.428 0.13,-2.785 0,-0.248 -0.026,-0.426 -0.082,-0.533 -0.054,-0.107 -0.164,-0.195 -0.33,-0.26 -0.393,-0.155 -0.587,-0.378 -0.587,-0.668 0,-0.265 0.135,-0.494 0.403,-0.683 0.271,-0.189 0.723,-0.378 1.357,-0.567 0.85,-0.254 1.572,-0.381 2.164,-0.387z"/>
   <path class="fil14" d="M51.656 7.503c0.138,0 0.282,0.008 0.437,0.025 0.666,0.071 1.177,0.107 1.529,0.107 0.359,0 0.618,-0.014 0.776,-0.042 0.189,-0.025 0.313,-0.04 0.373,-0.04 0.172,0 0.256,0.128 0.256,0.379 0,0.236 -0.05,0.542 -0.158,0.911 -0.104,0.37 -0.239,0.722 -0.403,1.058 -0.132,0.26 -0.245,0.435 -0.336,0.527 -0.09,0.094 -0.197,0.141 -0.318,0.141 -0.105,0 -0.24,-0.014 -0.404,-0.041 -0.491,-0.083 -1.055,-0.125 -1.696,-0.125 -0.267,0 -0.516,0.011 -0.741,0.034 -0.184,0.017 -0.322,0.025 -0.415,0.025 -0.226,0 -0.339,-0.132 -0.339,-0.398 0,-0.174 0.065,-0.474 0.195,-0.891 0.13,-0.417 0.254,-0.742 0.375,-0.968 0.15,-0.265 0.282,-0.445 0.401,-0.544 0.118,-0.099 0.273,-0.152 0.468,-0.158z"/>
   <path class="fil14" d="M38.664 2.529l-0.077 2.584c-0.005,0.26 -0.008,0.641 -0.008,1.143 0,0.556 0.008,0.883 0.025,0.982 0.04,0.228 0.156,0.341 0.347,0.341 0.167,0 0.421,-0.107 0.762,-0.319 0.342,-0.211 0.511,-0.372 0.511,-0.477 0,-0.059 -0.059,-0.169 -0.181,-0.33 -0.087,-0.115 -0.132,-0.225 -0.132,-0.33 0,-0.595 0.733,-0.891 2.198,-0.891 0.761,0 1.362,0.076 1.802,0.231 0.175,0.059 0.322,0.164 0.438,0.313 0.115,0.15 0.175,0.308 0.175,0.48 0,0.248 -0.119,0.42 -0.356,0.519 -0.051,0.022 -0.209,0.059 -0.479,0.107 -0.243,0.045 -0.556,0.195 -0.943,0.452 -0.386,0.256 -0.578,0.443 -0.578,0.558 0,0.076 0.231,0.44 0.697,1.086 0.465,0.649 0.9,1.211 1.303,1.69 0.26,0.316 0.46,0.536 0.607,0.664 0.146,0.126 0.35,0.259 0.609,0.403 0.395,0.214 0.593,0.46 0.593,0.736 0,0.291 -0.125,0.522 -0.376,0.686 -0.251,0.166 -0.592,0.248 -1.03,0.248l-2.677 0c-0.335,-0.006 -0.598,-0.13 -0.784,-0.372l-1.371 -1.761c-0.364,-0.462 -0.587,-0.739 -0.666,-0.827 -0.082,-0.087 -0.15,-0.132 -0.203,-0.132 -0.068,0 -0.11,0.051 -0.133,0.149 -0.022,0.099 -0.034,0.288 -0.034,0.562 0,0.248 0.029,0.429 0.085,0.542 0.054,0.112 0.18,0.248 0.378,0.409 0.144,0.115 0.217,0.288 0.217,0.513 0,0.387 -0.206,0.663 -0.612,0.835 -0.409,0.169 -1.081,0.254 -2.017,0.257 -1.103,-0.003 -1.82,-0.048 -2.15,-0.141 -0.186,-0.057 -0.347,-0.167 -0.48,-0.336 -0.132,-0.169 -0.197,-0.347 -0.197,-0.533 0,-0.209 0.115,-0.392 0.347,-0.545 0.197,-0.127 0.324,-0.223 0.381,-0.29 0.053,-0.065 0.098,-0.169 0.133,-0.313 0.126,-0.773 0.185,-1.961 0.18,-3.572l0 -1.809c0,-0.617 -0.031,-1.013 -0.096,-1.182 -0.062,-0.172 -0.217,-0.273 -0.466,-0.307 -0.451,-0.06 -0.677,-0.248 -0.677,-0.562 0,-0.209 0.099,-0.397 0.297,-0.567 0.197,-0.166 0.524,-0.333 0.976,-0.499 1.444,-0.533 2.511,-0.801 3.208,-0.801 0.313,0 0.465,0.135 0.454,0.406z"/>
   <path class="fil14" d="M29.785 5.173c0.982,0 1.848,0.245 2.596,0.736 0.711,0.468 1.066,1.049 1.066,1.743 0,0.48 -0.163,0.869 -0.497,1.165 -0.307,0.283 -0.68,0.421 -1.114,0.421 -0.457,0 -0.801,-0.164 -1.032,-0.494 -0.074,-0.104 -0.178,-0.372 -0.316,-0.804 -0.147,-0.463 -0.432,-0.694 -0.85,-0.694 -0.304,0 -0.558,0.132 -0.764,0.398 -0.209,0.265 -0.311,0.59 -0.311,0.976 0,0.661 0.238,1.247 0.712,1.76 0.383,0.413 0.868,0.619 1.452,0.619 0.277,0 0.508,-0.023 0.694,-0.068 0.19,-0.048 0.435,-0.144 0.737,-0.288 0.076,-0.037 0.163,-0.057 0.257,-0.057 0.186,0 0.352,0.088 0.496,0.266 0.141,0.174 0.214,0.381 0.214,0.618 0,0.248 -0.101,0.51 -0.307,0.781 -0.203,0.274 -0.468,0.511 -0.801,0.717 -0.717,0.44 -1.561,0.66 -2.537,0.66 -1.134,0 -2.101,-0.33 -2.9,-0.99 -1.027,-0.838 -1.538,-1.905 -1.538,-3.2 0,-1.247 0.477,-2.277 1.428,-3.092 0.912,-0.781 2.015,-1.173 3.315,-1.173z"/>
   <path class="fil14" d="M187.362 5.173c0.276,0 0.724,0.059 1.348,0.18 0.127,0.023 0.231,0.034 0.313,0.034 0.093,0 0.277,-0.048 0.545,-0.15 0.127,-0.048 0.234,-0.073 0.324,-0.073 0.254,0 0.508,0.164 0.768,0.488 0.209,0.26 0.381,0.542 0.513,0.852 0.133,0.308 0.198,0.576 0.198,0.801 0,0.22 -0.077,0.404 -0.232,0.551 -0.155,0.144 -0.347,0.217 -0.578,0.217 -0.192,0 -0.364,-0.046 -0.516,-0.138 -0.153,-0.096 -0.395,-0.302 -0.731,-0.621 -0.353,-0.342 -0.646,-0.514 -0.878,-0.514 -0.155,0 -0.287,0.057 -0.4,0.17 -0.113,0.112 -0.169,0.248 -0.169,0.4 0,0.271 0.259,0.525 0.776,0.762 0.93,0.418 1.644,0.875 2.141,1.371 0.42,0.42 0.629,0.931 0.629,1.538 0,0.767 -0.336,1.405 -1.01,1.918 -0.579,0.446 -1.287,0.669 -2.125,0.669 -0.214,0 -0.603,-0.037 -1.173,-0.107 -0.533,-0.06 -0.833,-0.091 -0.9,-0.091 -0.071,0 -0.155,0.009 -0.248,0.026 -0.158,0.02 -0.274,0.031 -0.348,0.031 -0.259,0 -0.462,-0.065 -0.612,-0.198 -0.225,-0.203 -0.434,-0.524 -0.626,-0.962 -0.195,-0.44 -0.291,-0.815 -0.291,-1.128 0,-0.508 0.198,-0.762 0.596,-0.762 0.155,0 0.296,0.051 0.426,0.152 0.13,0.105 0.4,0.376 0.815,0.816 0.226,0.243 0.412,0.409 0.562,0.499 0.149,0.09 0.307,0.138 0.479,0.138 0.181,0 0.328,-0.048 0.438,-0.146 0.109,-0.096 0.166,-0.223 0.166,-0.384 0,-0.248 -0.215,-0.474 -0.638,-0.677 -0.888,-0.435 -1.529,-0.886 -1.921,-1.349 -0.395,-0.462 -0.592,-0.996 -0.592,-1.602 0,-0.655 0.203,-1.222 0.603,-1.696 0.573,-0.677 1.357,-1.015 2.348,-1.015z"/>
   <path class="fil14" d="M179.255 5.223c0.28,0 0.449,0.04 0.508,0.124 0.062,0.082 0.116,0.347 0.164,0.793 0.024,0.243 0.108,0.364 0.242,0.364 0.105,0 0.207,-0.082 0.301,-0.24 0.419,-0.688 0.968,-1.032 1.645,-1.032 0.479,0 0.869,0.16 1.172,0.485 0.148,0.161 0.269,0.367 0.363,0.618 0.094,0.248 0.143,0.491 0.143,0.722 0,0.26 -0.059,0.525 -0.172,0.799 -0.116,0.27 -0.267,0.496 -0.449,0.671 -0.336,0.338 -0.75,0.505 -1.237,0.505 -0.269,0 -0.492,-0.048 -0.675,-0.15 -0.18,-0.098 -0.419,-0.299 -0.712,-0.6 -0.11,-0.116 -0.213,-0.175 -0.306,-0.175 -0.148,0 -0.245,0.087 -0.288,0.259 -0.046,0.175 -0.067,0.539 -0.067,1.098 0,0.829 0.029,1.399 0.086,1.701 0.037,0.167 0.089,0.279 0.153,0.344 0.067,0.062 0.207,0.127 0.422,0.192 0.473,0.149 0.71,0.409 0.71,0.779 0,0.225 -0.078,0.423 -0.229,0.589 -0.153,0.169 -0.355,0.28 -0.607,0.336 -0.503,0.11 -1.245,0.166 -2.221,0.166 -0.93,0 -1.634,-0.087 -2.118,-0.256 -0.43,-0.155 -0.645,-0.423 -0.645,-0.802 0,-0.287 0.156,-0.544 0.47,-0.77 0.154,-0.104 0.258,-0.2 0.317,-0.285 0.057,-0.084 0.097,-0.203 0.119,-0.352 0.083,-0.5 0.123,-1.428 0.123,-2.785 0,-0.248 -0.024,-0.426 -0.078,-0.533 -0.051,-0.107 -0.156,-0.195 -0.314,-0.26 -0.374,-0.155 -0.56,-0.378 -0.56,-0.668 0,-0.265 0.129,-0.494 0.385,-0.683 0.258,-0.189 0.688,-0.378 1.293,-0.567 0.809,-0.254 1.498,-0.381 2.062,-0.387z"/>
   <path class="fil14" d="M160.221 5.173c0.276,0 0.725,0.059 1.348,0.18 0.127,0.023 0.231,0.034 0.313,0.034 0.093,0 0.277,-0.048 0.545,-0.15 0.127,-0.048 0.234,-0.073 0.324,-0.073 0.254,0 0.508,0.164 0.768,0.488 0.209,0.26 0.381,0.542 0.513,0.852 0.133,0.308 0.198,0.576 0.198,0.801 0,0.22 -0.077,0.404 -0.232,0.551 -0.155,0.144 -0.347,0.217 -0.578,0.217 -0.192,0 -0.364,-0.046 -0.516,-0.138 -0.153,-0.096 -0.395,-0.302 -0.731,-0.621 -0.353,-0.342 -0.646,-0.514 -0.878,-0.514 -0.154,0 -0.287,0.057 -0.4,0.17 -0.113,0.112 -0.169,0.248 -0.169,0.4 0,0.271 0.259,0.525 0.776,0.762 0.93,0.418 1.644,0.875 2.141,1.371 0.42,0.42 0.629,0.931 0.629,1.538 0,0.767 -0.336,1.405 -1.01,1.918 -0.578,0.446 -1.287,0.669 -2.125,0.669 -0.214,0 -0.603,-0.037 -1.173,-0.107 -0.533,-0.06 -0.833,-0.091 -0.9,-0.091 -0.071,0 -0.155,0.009 -0.248,0.026 -0.158,0.02 -0.274,0.031 -0.347,0.031 -0.26,0 -0.463,-0.065 -0.613,-0.198 -0.225,-0.203 -0.434,-0.524 -0.626,-0.962 -0.194,-0.44 -0.291,-0.815 -0.291,-1.128 0,-0.508 0.198,-0.762 0.596,-0.762 0.155,0 0.296,0.051 0.426,0.152 0.13,0.105 0.4,0.376 0.815,0.816 0.226,0.243 0.412,0.409 0.562,0.499 0.149,0.09 0.307,0.138 0.479,0.138 0.181,0 0.328,-0.048 0.438,-0.146 0.109,-0.096 0.166,-0.223 0.166,-0.384 0,-0.248 -0.215,-0.474 -0.638,-0.677 -0.888,-0.435 -1.529,-0.886 -1.921,-1.349 -0.395,-0.462 -0.592,-0.996 -0.592,-1.602 0,-0.655 0.203,-1.222 0.603,-1.696 0.573,-0.677 1.358,-1.015 2.348,-1.015z"/>
  </g>
  <rect class="fil15" x="0.008" y="0.041" width="193.145" height="30.476"/>
 </g>
</svg>
